<mxfile host="app.diagrams.net" modified="2022-05-06T14:12:23.775Z" agent="5.0 (Windows NT 6.3; Win64; x64) AppleWebKit/537.36 (KHTML, like Gecko) Chrome/101.0.4951.54 Safari/537.36" etag="MCsd-S_DMHu1j1-soXJb" version="18.0.1" type="github">
  <diagram id="Ew6MhXQrhnj5z5wd2xC8" name="Page-1">
    <mxGraphModel dx="1935" dy="3989" grid="1" gridSize="10" guides="1" tooltips="1" connect="1" arrows="1" fold="1" page="1" pageScale="1" pageWidth="827" pageHeight="1169" background="#F4F1DE" math="0" shadow="0">
      <root>
        <mxCell id="0" />
        <mxCell id="1" parent="0" />
        <mxCell id="M-DRq3Ar3A-ibUR5dKXC-2" value="&lt;div style=&quot;&quot;&gt;&lt;b style=&quot;background-color: initial;&quot;&gt;&lt;font style=&quot;font-size: 17px;&quot;&gt;University&lt;/font&gt;&lt;/b&gt;&lt;/div&gt;" style="swimlane;fontStyle=0;align=center;verticalAlign=top;childLayout=stackLayout;horizontal=1;startSize=40;horizontalStack=0;resizeParent=1;resizeParentMax=0;resizeLast=0;collapsible=0;marginBottom=0;html=1;fillColor=#F2CC8F;strokeColor=#E07A5F;fontColor=#393C56;" parent="1" vertex="1">
          <mxGeometry x="344" y="-2930" width="140" height="70" as="geometry" />
        </mxCell>
        <mxCell id="M-DRq3Ar3A-ibUR5dKXC-3" value="literal1" style="text;html=1;strokeColor=none;fillColor=none;align=left;verticalAlign=middle;spacingLeft=4;spacingRight=4;overflow=hidden;rotatable=0;points=[[0,0.5],[1,0.5]];portConstraint=eastwest;fontColor=#393C56;" parent="M-DRq3Ar3A-ibUR5dKXC-2" vertex="1">
          <mxGeometry y="40" width="140" height="30" as="geometry" />
        </mxCell>
        <mxCell id="M-DRq3Ar3A-ibUR5dKXC-9" value="1" style="endArrow=open;html=1;endSize=12;startArrow=diamondThin;startSize=14;startFill=1;edgeStyle=orthogonalEdgeStyle;align=left;verticalAlign=bottom;rounded=0;labelBackgroundColor=#F4F1DE;strokeColor=#E07A5F;fontColor=#393C56;" parent="1" edge="1">
          <mxGeometry x="-1" y="3" relative="1" as="geometry">
            <mxPoint x="484" y="-2890" as="sourcePoint" />
            <mxPoint x="760" y="-2800" as="targetPoint" />
            <Array as="points">
              <mxPoint x="534" y="-2890" />
              <mxPoint x="534" y="-2890" />
            </Array>
          </mxGeometry>
        </mxCell>
        <mxCell id="M-DRq3Ar3A-ibUR5dKXC-18" value="classroom" style="swimlane;fontStyle=1;align=center;verticalAlign=top;childLayout=stackLayout;horizontal=1;startSize=26;horizontalStack=0;resizeParent=1;resizeParentMax=0;resizeLast=0;collapsible=1;marginBottom=0;fillColor=#F2CC8F;strokeColor=#E07A5F;fontColor=#393C56;" parent="1" vertex="1">
          <mxGeometry x="690" y="-2800" width="130" height="86" as="geometry" />
        </mxCell>
        <mxCell id="M-DRq3Ar3A-ibUR5dKXC-19" value="+ field: type" style="text;strokeColor=none;fillColor=none;align=left;verticalAlign=top;spacingLeft=4;spacingRight=4;overflow=hidden;rotatable=0;points=[[0,0.5],[1,0.5]];portConstraint=eastwest;fontColor=#393C56;" parent="M-DRq3Ar3A-ibUR5dKXC-18" vertex="1">
          <mxGeometry y="26" width="130" height="26" as="geometry" />
        </mxCell>
        <mxCell id="M-DRq3Ar3A-ibUR5dKXC-20" value="" style="line;strokeWidth=1;fillColor=none;align=left;verticalAlign=middle;spacingTop=-1;spacingLeft=3;spacingRight=3;rotatable=0;labelPosition=right;points=[];portConstraint=eastwest;labelBackgroundColor=#F4F1DE;strokeColor=#E07A5F;fontColor=#393C56;" parent="M-DRq3Ar3A-ibUR5dKXC-18" vertex="1">
          <mxGeometry y="52" width="130" height="8" as="geometry" />
        </mxCell>
        <mxCell id="M-DRq3Ar3A-ibUR5dKXC-21" value="+ method(type): type" style="text;strokeColor=none;fillColor=none;align=left;verticalAlign=top;spacingLeft=4;spacingRight=4;overflow=hidden;rotatable=0;points=[[0,0.5],[1,0.5]];portConstraint=eastwest;fontColor=#393C56;" parent="M-DRq3Ar3A-ibUR5dKXC-18" vertex="1">
          <mxGeometry y="60" width="130" height="26" as="geometry" />
        </mxCell>
        <mxCell id="M-DRq3Ar3A-ibUR5dKXC-22" value="1" style="endArrow=open;html=1;endSize=12;startArrow=diamondThin;startSize=14;startFill=1;edgeStyle=orthogonalEdgeStyle;align=left;verticalAlign=bottom;rounded=0;exitX=0.486;exitY=1.167;exitDx=0;exitDy=0;exitPerimeter=0;labelBackgroundColor=#F4F1DE;strokeColor=#E07A5F;fontColor=#393C56;" parent="1" edge="1">
          <mxGeometry x="-0.3686" relative="1" as="geometry">
            <mxPoint x="358.03999999999996" y="-2859.99" as="sourcePoint" />
            <mxPoint x="358" y="-2765" as="targetPoint" />
            <Array as="points">
              <mxPoint x="358" y="-2835" />
              <mxPoint x="358" y="-2835" />
            </Array>
            <mxPoint as="offset" />
          </mxGeometry>
        </mxCell>
        <mxCell id="M-DRq3Ar3A-ibUR5dKXC-23" value="1" style="endArrow=open;html=1;endSize=12;startArrow=diamondThin;startSize=14;startFill=1;edgeStyle=orthogonalEdgeStyle;align=left;verticalAlign=bottom;rounded=0;exitX=0.829;exitY=1.333;exitDx=0;exitDy=0;exitPerimeter=0;labelBackgroundColor=#F4F1DE;strokeColor=#E07A5F;fontColor=#393C56;" parent="1" edge="1">
          <mxGeometry x="-0.2887" relative="1" as="geometry">
            <mxPoint x="466.05999999999995" y="-2861.01" as="sourcePoint" />
            <mxPoint x="466" y="-2771" as="targetPoint" />
            <Array as="points">
              <mxPoint x="466" y="-2821" />
              <mxPoint x="466" y="-2821" />
            </Array>
            <mxPoint as="offset" />
          </mxGeometry>
        </mxCell>
        <mxCell id="M-DRq3Ar3A-ibUR5dKXC-24" value="Employee" style="swimlane;fontStyle=1;align=center;verticalAlign=top;childLayout=stackLayout;horizontal=1;startSize=26;horizontalStack=0;resizeParent=1;resizeParentMax=0;resizeLast=0;collapsible=1;marginBottom=0;fillColor=#F2CC8F;strokeColor=#E07A5F;fontColor=#393C56;" parent="1" vertex="1">
          <mxGeometry x="280" y="-2760" width="120" height="86" as="geometry" />
        </mxCell>
        <mxCell id="M-DRq3Ar3A-ibUR5dKXC-25" value="+ field: type" style="text;strokeColor=none;fillColor=none;align=left;verticalAlign=top;spacingLeft=4;spacingRight=4;overflow=hidden;rotatable=0;points=[[0,0.5],[1,0.5]];portConstraint=eastwest;fontColor=#393C56;" parent="M-DRq3Ar3A-ibUR5dKXC-24" vertex="1">
          <mxGeometry y="26" width="120" height="26" as="geometry" />
        </mxCell>
        <mxCell id="M-DRq3Ar3A-ibUR5dKXC-26" value="" style="line;strokeWidth=1;fillColor=none;align=left;verticalAlign=middle;spacingTop=-1;spacingLeft=3;spacingRight=3;rotatable=0;labelPosition=right;points=[];portConstraint=eastwest;labelBackgroundColor=#F4F1DE;strokeColor=#E07A5F;fontColor=#393C56;" parent="M-DRq3Ar3A-ibUR5dKXC-24" vertex="1">
          <mxGeometry y="52" width="120" height="8" as="geometry" />
        </mxCell>
        <mxCell id="M-DRq3Ar3A-ibUR5dKXC-27" value="+ method(type): type" style="text;strokeColor=none;fillColor=none;align=left;verticalAlign=top;spacingLeft=4;spacingRight=4;overflow=hidden;rotatable=0;points=[[0,0.5],[1,0.5]];portConstraint=eastwest;fontColor=#393C56;" parent="M-DRq3Ar3A-ibUR5dKXC-24" vertex="1">
          <mxGeometry y="60" width="120" height="26" as="geometry" />
        </mxCell>
        <mxCell id="M-DRq3Ar3A-ibUR5dKXC-28" value="Offices" style="swimlane;fontStyle=1;align=center;verticalAlign=top;childLayout=stackLayout;horizontal=1;startSize=26;horizontalStack=0;resizeParent=1;resizeParentMax=0;resizeLast=0;collapsible=1;marginBottom=0;fillColor=#F2CC8F;strokeColor=#E07A5F;fontColor=#393C56;" parent="1" vertex="1">
          <mxGeometry x="450" y="-2768" width="130" height="86" as="geometry" />
        </mxCell>
        <mxCell id="M-DRq3Ar3A-ibUR5dKXC-29" value="+ field: type" style="text;strokeColor=none;fillColor=none;align=left;verticalAlign=top;spacingLeft=4;spacingRight=4;overflow=hidden;rotatable=0;points=[[0,0.5],[1,0.5]];portConstraint=eastwest;fontColor=#393C56;" parent="M-DRq3Ar3A-ibUR5dKXC-28" vertex="1">
          <mxGeometry y="26" width="130" height="26" as="geometry" />
        </mxCell>
        <mxCell id="M-DRq3Ar3A-ibUR5dKXC-30" value="" style="line;strokeWidth=1;fillColor=none;align=left;verticalAlign=middle;spacingTop=-1;spacingLeft=3;spacingRight=3;rotatable=0;labelPosition=right;points=[];portConstraint=eastwest;labelBackgroundColor=#F4F1DE;strokeColor=#E07A5F;fontColor=#393C56;" parent="M-DRq3Ar3A-ibUR5dKXC-28" vertex="1">
          <mxGeometry y="52" width="130" height="8" as="geometry" />
        </mxCell>
        <mxCell id="M-DRq3Ar3A-ibUR5dKXC-31" value="+ method(type): type" style="text;strokeColor=none;fillColor=none;align=left;verticalAlign=top;spacingLeft=4;spacingRight=4;overflow=hidden;rotatable=0;points=[[0,0.5],[1,0.5]];portConstraint=eastwest;fontColor=#393C56;" parent="M-DRq3Ar3A-ibUR5dKXC-28" vertex="1">
          <mxGeometry y="60" width="130" height="26" as="geometry" />
        </mxCell>
        <mxCell id="M-DRq3Ar3A-ibUR5dKXC-33" value="" style="endArrow=diamondThin;endFill=0;endSize=24;html=1;rounded=0;fontSize=17;entryX=0.417;entryY=1.154;entryDx=0;entryDy=0;entryPerimeter=0;labelBackgroundColor=#F4F1DE;strokeColor=#E07A5F;fontColor=#393C56;" parent="1" edge="1">
          <mxGeometry width="160" relative="1" as="geometry">
            <mxPoint x="330" y="-2604" as="sourcePoint" />
            <mxPoint x="330.03999999999996" y="-2673.996" as="targetPoint" />
          </mxGeometry>
        </mxCell>
        <mxCell id="M-DRq3Ar3A-ibUR5dKXC-36" value="" style="endArrow=open;endFill=1;endSize=12;html=1;rounded=0;fontSize=17;labelBackgroundColor=#F4F1DE;strokeColor=#E07A5F;fontColor=#393C56;" parent="1" edge="1">
          <mxGeometry width="160" relative="1" as="geometry">
            <mxPoint x="330" y="-2605" as="sourcePoint" />
            <mxPoint x="400" y="-2560" as="targetPoint" />
            <Array as="points">
              <mxPoint x="400" y="-2605" />
            </Array>
          </mxGeometry>
        </mxCell>
        <mxCell id="M-DRq3Ar3A-ibUR5dKXC-37" value="" style="endArrow=open;endFill=1;endSize=12;html=1;rounded=0;fontSize=17;labelBackgroundColor=#F4F1DE;strokeColor=#E07A5F;fontColor=#393C56;" parent="1" edge="1">
          <mxGeometry width="160" relative="1" as="geometry">
            <mxPoint x="330" y="-2605" as="sourcePoint" />
            <mxPoint x="240" y="-2560" as="targetPoint" />
            <Array as="points">
              <mxPoint x="240" y="-2605" />
            </Array>
          </mxGeometry>
        </mxCell>
        <mxCell id="M-DRq3Ar3A-ibUR5dKXC-38" value="&lt;p style=&quot;margin:0px;margin-top:4px;text-align:center;text-decoration:underline;&quot;&gt;&lt;b&gt;Proffesors&lt;/b&gt;&lt;/p&gt;" style="verticalAlign=top;align=left;overflow=fill;fontSize=12;fontFamily=Helvetica;html=1;fillColor=#F2CC8F;strokeColor=#E07A5F;fontColor=#393C56;" parent="1" vertex="1">
          <mxGeometry x="180" y="-2560" width="110" height="60" as="geometry" />
        </mxCell>
        <mxCell id="M-DRq3Ar3A-ibUR5dKXC-39" value="&lt;p style=&quot;margin:0px;margin-top:4px;text-align:center;text-decoration:underline;&quot;&gt;&lt;b&gt;Staff&lt;/b&gt;&lt;/p&gt;" style="verticalAlign=top;align=left;overflow=fill;fontSize=12;fontFamily=Helvetica;html=1;fillColor=#F2CC8F;strokeColor=#E07A5F;fontColor=#393C56;" parent="1" vertex="1">
          <mxGeometry x="340" y="-2560" width="110" height="60" as="geometry" />
        </mxCell>
        <mxCell id="M-DRq3Ar3A-ibUR5dKXC-48" value="1" style="endArrow=open;html=1;endSize=12;startArrow=diamondThin;startSize=14;startFill=0;edgeStyle=orthogonalEdgeStyle;align=left;verticalAlign=bottom;rounded=0;fontSize=17;entryX=1;entryY=0.5;entryDx=0;entryDy=0;exitX=0.5;exitY=1.115;exitDx=0;exitDy=0;exitPerimeter=0;labelBackgroundColor=#F4F1DE;strokeColor=#E07A5F;fontColor=#393C56;" parent="1" edge="1">
          <mxGeometry x="0.9065" y="14" relative="1" as="geometry">
            <mxPoint x="515" y="-2683.01" as="sourcePoint" />
            <mxPoint x="450" y="-2534" as="targetPoint" />
            <Array as="points">
              <mxPoint x="515" y="-2534" />
            </Array>
            <mxPoint as="offset" />
          </mxGeometry>
        </mxCell>
        <mxCell id="M-DRq3Ar3A-ibUR5dKXC-51" value="1" style="endArrow=open;html=1;endSize=12;startArrow=diamondThin;startSize=14;startFill=1;edgeStyle=orthogonalEdgeStyle;align=left;verticalAlign=bottom;rounded=0;fontSize=17;exitX=0.238;exitY=1.192;exitDx=0;exitDy=0;exitPerimeter=0;entryX=0.372;entryY=0.07;entryDx=0;entryDy=0;entryPerimeter=0;labelBackgroundColor=#F4F1DE;strokeColor=#E07A5F;fontColor=#393C56;" parent="1" edge="1">
          <mxGeometry x="-0.395" y="-11" relative="1" as="geometry">
            <mxPoint x="0.9400000000000546" y="-2703.008" as="sourcePoint" />
            <mxPoint x="0.9200000000000728" y="-2583.98" as="targetPoint" />
            <Array as="points">
              <mxPoint y="-2674" />
              <mxPoint y="-2674" />
            </Array>
            <mxPoint as="offset" />
          </mxGeometry>
        </mxCell>
        <mxCell id="M-DRq3Ar3A-ibUR5dKXC-52" value="offices2" style="swimlane;fontStyle=1;align=center;verticalAlign=top;childLayout=stackLayout;horizontal=1;startSize=26;horizontalStack=0;resizeParent=1;resizeParentMax=0;resizeLast=0;collapsible=1;marginBottom=0;fontSize=17;fillColor=#F2CC8F;strokeColor=#E07A5F;fontColor=#393C56;" parent="1" vertex="1">
          <mxGeometry x="-60" y="-2586" width="110" height="86" as="geometry" />
        </mxCell>
        <mxCell id="M-DRq3Ar3A-ibUR5dKXC-53" value="+ field: type" style="text;strokeColor=none;fillColor=none;align=left;verticalAlign=top;spacingLeft=4;spacingRight=4;overflow=hidden;rotatable=0;points=[[0,0.5],[1,0.5]];portConstraint=eastwest;fontSize=17;fontColor=#393C56;" parent="M-DRq3Ar3A-ibUR5dKXC-52" vertex="1">
          <mxGeometry y="26" width="110" height="26" as="geometry" />
        </mxCell>
        <mxCell id="M-DRq3Ar3A-ibUR5dKXC-54" value="" style="line;strokeWidth=1;fillColor=none;align=left;verticalAlign=middle;spacingTop=-1;spacingLeft=3;spacingRight=3;rotatable=0;labelPosition=right;points=[];portConstraint=eastwest;fontSize=17;labelBackgroundColor=#F4F1DE;strokeColor=#E07A5F;fontColor=#393C56;" parent="M-DRq3Ar3A-ibUR5dKXC-52" vertex="1">
          <mxGeometry y="52" width="110" height="8" as="geometry" />
        </mxCell>
        <mxCell id="M-DRq3Ar3A-ibUR5dKXC-55" value="+ method(type): type" style="text;strokeColor=none;fillColor=none;align=left;verticalAlign=top;spacingLeft=4;spacingRight=4;overflow=hidden;rotatable=0;points=[[0,0.5],[1,0.5]];portConstraint=eastwest;fontSize=17;fontColor=#393C56;" parent="M-DRq3Ar3A-ibUR5dKXC-52" vertex="1">
          <mxGeometry y="60" width="110" height="26" as="geometry" />
        </mxCell>
        <mxCell id="M-DRq3Ar3A-ibUR5dKXC-13" value="Departmans" style="swimlane;fontStyle=1;align=center;verticalAlign=top;childLayout=stackLayout;horizontal=1;startSize=26;horizontalStack=0;resizeParent=1;resizeParentMax=0;resizeLast=0;collapsible=1;marginBottom=0;fillColor=#F2CC8F;strokeColor=#E07A5F;fontColor=#393C56;" parent="1" vertex="1">
          <mxGeometry x="-56" y="-2790" width="130" height="86" as="geometry" />
        </mxCell>
        <mxCell id="M-DRq3Ar3A-ibUR5dKXC-14" value="+ field: type" style="text;strokeColor=none;fillColor=none;align=left;verticalAlign=top;spacingLeft=4;spacingRight=4;overflow=hidden;rotatable=0;points=[[0,0.5],[1,0.5]];portConstraint=eastwest;fontColor=#393C56;" parent="M-DRq3Ar3A-ibUR5dKXC-13" vertex="1">
          <mxGeometry y="26" width="130" height="26" as="geometry" />
        </mxCell>
        <mxCell id="M-DRq3Ar3A-ibUR5dKXC-15" value="" style="line;strokeWidth=1;fillColor=none;align=left;verticalAlign=middle;spacingTop=-1;spacingLeft=3;spacingRight=3;rotatable=0;labelPosition=right;points=[];portConstraint=eastwest;labelBackgroundColor=#F4F1DE;strokeColor=#E07A5F;fontColor=#393C56;" parent="M-DRq3Ar3A-ibUR5dKXC-13" vertex="1">
          <mxGeometry y="52" width="130" height="8" as="geometry" />
        </mxCell>
        <mxCell id="M-DRq3Ar3A-ibUR5dKXC-16" value="+ method(type): type" style="text;strokeColor=none;fillColor=none;align=left;verticalAlign=top;spacingLeft=4;spacingRight=4;overflow=hidden;rotatable=0;points=[[0,0.5],[1,0.5]];portConstraint=eastwest;fontColor=#393C56;" parent="M-DRq3Ar3A-ibUR5dKXC-13" vertex="1">
          <mxGeometry y="60" width="130" height="26" as="geometry" />
        </mxCell>
        <mxCell id="M-DRq3Ar3A-ibUR5dKXC-60" value="1" style="endArrow=open;html=1;endSize=12;startArrow=diamondThin;startSize=14;startFill=0;edgeStyle=orthogonalEdgeStyle;align=left;verticalAlign=bottom;rounded=0;fontSize=17;labelBackgroundColor=#F4F1DE;strokeColor=#E07A5F;fontColor=#393C56;" parent="1" edge="1">
          <mxGeometry x="-1" y="3" relative="1" as="geometry">
            <mxPoint x="50" y="-2530" as="sourcePoint" />
            <mxPoint x="180" y="-2530" as="targetPoint" />
          </mxGeometry>
        </mxCell>
        <mxCell id="M-DRq3Ar3A-ibUR5dKXC-62" value="" style="shape=waypoint;sketch=0;fillStyle=solid;size=6;pointerEvents=1;points=[];fillColor=none;resizable=0;rotatable=0;perimeter=centerPerimeter;snapToPoint=1;rounded=0;fontColor=#393C56;strokeColor=#E07A5F;" parent="1" vertex="1">
          <mxGeometry x="730" y="-2827" width="40" height="40" as="geometry" />
        </mxCell>
        <mxCell id="M-DRq3Ar3A-ibUR5dKXC-63" value="" style="shape=waypoint;sketch=0;fillStyle=solid;size=6;pointerEvents=1;points=[];fillColor=none;resizable=0;rotatable=0;perimeter=centerPerimeter;snapToPoint=1;rounded=0;fontColor=#393C56;strokeColor=#E07A5F;" parent="1" vertex="1">
          <mxGeometry x="458" y="-2800" width="40" height="40" as="geometry" />
        </mxCell>
        <mxCell id="M-DRq3Ar3A-ibUR5dKXC-64" value="" style="shape=waypoint;sketch=0;fillStyle=solid;size=6;pointerEvents=1;points=[];fillColor=none;resizable=0;rotatable=0;perimeter=centerPerimeter;snapToPoint=1;rounded=0;fontColor=#393C56;strokeColor=#E07A5F;" parent="1" vertex="1">
          <mxGeometry x="325" y="-2791" width="40" height="40" as="geometry" />
        </mxCell>
        <mxCell id="M-DRq3Ar3A-ibUR5dKXC-65" value="" style="shape=waypoint;sketch=0;fillStyle=solid;size=6;pointerEvents=1;points=[];fillColor=none;resizable=0;rotatable=0;perimeter=centerPerimeter;snapToPoint=1;rounded=0;fontColor=#393C56;strokeColor=#E07A5F;" parent="1" vertex="1">
          <mxGeometry x="-4" y="-2824" width="40" height="40" as="geometry" />
        </mxCell>
        <mxCell id="M-DRq3Ar3A-ibUR5dKXC-66" value="" style="shape=waypoint;sketch=0;fillStyle=solid;size=6;pointerEvents=1;points=[];fillColor=none;resizable=0;rotatable=0;perimeter=centerPerimeter;snapToPoint=1;rounded=0;fontColor=#393C56;strokeColor=#E07A5F;" parent="1" vertex="1">
          <mxGeometry x="394" y="-2586" width="40" height="40" as="geometry" />
        </mxCell>
        <mxCell id="M-DRq3Ar3A-ibUR5dKXC-67" value="" style="shape=waypoint;sketch=0;fillStyle=solid;size=6;pointerEvents=1;points=[];fillColor=none;resizable=0;rotatable=0;perimeter=centerPerimeter;snapToPoint=1;rounded=0;fontColor=#393C56;strokeColor=#E07A5F;" parent="1" vertex="1">
          <mxGeometry x="230" y="-2586" width="40" height="40" as="geometry" />
        </mxCell>
        <mxCell id="M-DRq3Ar3A-ibUR5dKXC-68" value="" style="shape=waypoint;sketch=0;fillStyle=solid;size=6;pointerEvents=1;points=[];fillColor=none;resizable=0;rotatable=0;perimeter=centerPerimeter;snapToPoint=1;rounded=0;fontColor=#393C56;strokeColor=#E07A5F;" parent="1" vertex="1">
          <mxGeometry x="-19" y="-2620" width="40" height="40" as="geometry" />
        </mxCell>
        <mxCell id="M-DRq3Ar3A-ibUR5dKXC-69" value="1" style="endArrow=open;html=1;endSize=12;startArrow=diamondThin;startSize=14;startFill=1;edgeStyle=orthogonalEdgeStyle;align=left;verticalAlign=bottom;rounded=1;sketch=0;fontColor=#393C56;strokeColor=#E07A5F;fillColor=#F2CC8F;curved=0;exitX=-0.029;exitY=0.067;exitDx=0;exitDy=0;exitPerimeter=0;" parent="1" edge="1">
          <mxGeometry x="-0.8633" y="18" relative="1" as="geometry">
            <mxPoint x="344.94000000000005" y="-2888.99" as="sourcePoint" />
            <mxPoint x="5" y="-2791" as="targetPoint" />
            <mxPoint as="offset" />
          </mxGeometry>
        </mxCell>
      </root>
    </mxGraphModel>
  </diagram>
</mxfile>
